# AST/ASF file generated using VICON BodyLanguage
# -----------------------------------------------
:version 1.10
:name VICON
:units
  mass 1.0
  length 0.45
  angle deg
:documentation
   .ast/.asf automatically generated from VICON data using
   VICON BodyBuilder and BodyLanguage model FoxedUp or BRILLIANT.MOD
:root
   order TX TY TZ RX RY RZ
   axis XYZ
   position 0 0 0  
   orientation 0 0 0 
:bonedata
  begin
     id 1 
     name lhipjoint
     direction 0.528046 -0.759594 0.379717 
     length 2.39752 
     axis 0 0 0  XYZ
  end
  begin
     id 2 
     name lfemur
     direction 0.34202 -0.939693 0  
     length 7.31175  
     axis 0 0 20  XYZ
    dof rx ry rz
    limits (-160.0 20.0)
           (-70.0 70.0)
           (-60.0 70.0)
  end
  begin
     id 3 
     name ltibia
     direction 0.34202 -0.939693 0   
     length 7.52482   
     axis 0 0 20   XYZ
    dof rx
    limits (-10.0 170.0)
  end
  begin
     id 4 
     name lfoot
     direction 0.0675379 -0.185559 0.980309   
     length 2.00961   
     axis -90 7.62852e-016 20   XYZ
    dof rx rz
    limits (-45.0 90.0)
           (-70.0 20.0)
  end
  begin
     id 5 
     name ltoes
     direction 1.5352e-011 -4.22286e-011 1   
     length 1.01383   
     axis -90 7.62852e-016 20   XYZ
    dof rx
    limits (-90.0 20.0)
  end
  begin
     id 6 
     name rhipjoint
     direction -0.510274 -0.769251 0.384544   
     length 2.36742  
     axis 0 0 0  XYZ 
  end
  begin
     id 7 
     name rfemur
     direction -0.34202 -0.939693 0   
     length 7.45325   
     axis 0 0 -20   XYZ
    dof rx ry rz
    limits (-160.0 20.0)
           (-70.0 70.0)
           (-70.0 60.0)
  end
  begin
     id 8 
     name rtibia
     direction -0.34202 -0.939693 0   
     length 7.49587   
     axis 0 0 -20   XYZ
    dof rx
    limits (-10.0 170.0)
 end
 begin
     id 9 
     name rfoot
     direction -0.106475 -0.292536 0.950308   
     length 2.20898  
     axis -90 -7.62852e-016 -20   XYZ
    dof rx rz
    limits (-45.0 90.0)
           (-20.0 70.0)
  end
  begin
     id 10 
     name rtoes
     direction -1.53597e-011 -4.22023e-011 1   
     length 1.10065   
     axis -90 -7.62852e-016 -20   XYZ
    dof rx
    limits (-90.0 20.0)
  end
  begin
     id 11 
     name lowerback
     direction 0.0260024 0.998026 -0.0571652   
     length 2.11214   
     axis 0 0 0   XYZ
    dof rx ry rz
    limits (-20.0 45.0)
           (-30.0 30.0)
           (-30.0 30.0)
  end
  begin
     id 12 
     name upperback
     direction 0.0216202 0.999542 -0.0211766   
     length 2.11689   
     axis 0 0 0   XYZ
    dof rx ry rz
    limits (-20.0 45.0)
           (-30.0 30.0)
           (-30.0 30.0)
  end
  begin
     id 13 
     name thorax
     direction 0.00883312 0.999944 0.00589057   
     length 2.11821   
     axis 0 0 0   XYZ
    dof rx ry rz
    limits (-20.0 45.0)
           (-30.0 30.0)
           (-30.0 30.0)
  end
  begin
     id 14 
     name lowerneck
     direction -0.059386 0.994433 0.0870401   
     length 1.81176   
     axis 0 0 0   XYZ
    dof rx ry rz
    limits (-20.0 45.0)
           (-30.0 30.0)
           (-30.0 30.0)
  end
  begin
     id 15 
     name upperneck
     direction 0.0506457 0.97328 -0.223967   
     length 1.82382   
     axis 0 0 0   XYZ
    dof rx ry rz
    limits (-20.0 45.0)
           (-30.0 30.0)
           (-30.0 30.0)
  end
  begin
     id 16
     name head
     direction 0.0205902 0.996147 -0.0852487  
     length 1.84805  
     axis 0 0 0   XYZ
    dof rx ry rz
    limits (-20.0 45.0)
           (-30.0 30.0)
           (-30.0 30.0)
  end
  begin
     id 17 
     name lclavicle
     direction 0.949493 0.303881 -0.0782325  
     length 3.60584  
     axis 0 0 0   XYZ
    dof ry rz
    limits (-20.0 10.0)
           (0.0 20.0)
  end
  begin
     id 18 
     name lhumerus
     direction 1 -4.48965e-011 1.48782e-027   
     length 4.95681   
     axis 180 -30 -90   XYZ
    dof rx ry rz
    limits (-60.0 90.0)
           (-90.0 90.0)
           (-90.0 90.0)
  end
  begin
     id 19
     name lradius
     direction 1 -4.48952e-011 2.06528e-027   
     length 3.40915   
     axis 180 -30 -90   XYZ
    dof rx
    limits (-10.0 170.0)
  end
  begin
     id 20
     name lwrist
     direction 1 -4.48964e-011 1.28021e-027   
     length 1.70457   
     axis -1.61767e-015 90 90   XYZ
    dof ry
    limits (-180.0 0.0)
 end
  begin
     id 21 
     name lhand
     direction 1 -4.49094e-011 2.54887e-027   
     length 0.616403   
     axis -1.63363e-015 90 90   XYZ
    dof rx rz
    limits (-90.0 90.0)
           (-45.0 45.0)
  end
  begin
     id 22 
     name lfingers
     direction 1 -4.49002e-011 5.11407e-027   
     length 0.49696   
     axis -3.26723e-015 90 90   XYZ
    dof rx
    limits (0.0 90.0)
  end
  begin
     id 23
     name lthumb
     direction 0.707107 -6.34998e-011 0.707107   
     length 0.713539   
     axis -90 45 -2.25915e-014   XYZ
    dof rx rz
    limits (-45.0 45.0)
           (-45.0 45.0)
  end
  begin
     id 24 
     name rclavicle
     direction -0.937751 0.334612 -0.0930482   
     length 3.46287  
     axis 0 0 0   XYZ 
    dof ry rz
    limits (-10.0 20.0)
           (-20.0 0.0)
  end
  begin
     id 25 
     name rhumerus
     direction -1 -4.48962e-011 3.59972e-027  
     length 5.352   
     axis 180 30 90   XYZ
    dof rx ry rz
    limits (-90.0 60.0)
           (-90.0 90.0)
           (-90.0 90.0)
  end
  begin
     id 26 
     name rradius
     direction -1 -4.48987e-011 -3.76925e-027   
     length 3.43721   
     axis 180 30 90   XYZ
    dof rx
    limits (-10.0 170.0)
  end
  begin
     id 27 
     name rwrist
     direction -1 -4.48943e-011 1.28112e-027   
     length 1.7186   
     axis -1.61767e-015 -90 -90   XYZ
    dof ry
    limits (-180.0 0.0)
  end
  begin
     id 28
     name rhand
     direction -1 -4.49027e-011 2.55483e-027   
     length 0.72009   
     axis -1.63363e-015 -90 -90   XYZ
    dof rx rz
    limits (-90.0 90.0)
           (-45.0 45.0)
  end
  begin
     id 29
     name rfingers
     direction -1 -4.48827e-011 5.14506e-027   
     length 0.580555   
     axis -3.26723e-015 -90 -90   XYZ
    dof rx
    limits (0.0 90.0)
  end
  begin
     id 30
     name rthumb
     direction -0.707107 -6.34936e-011 0.707107   
     length 0.833564   
     axis -90 -45 2.25915e-014   XYZ
    dof rx rz
    limits (-45.0 45.0)
           (-45.0 45.0)
  end
:hierarchy
  begin
    root lhipjoint rhipjoint lowerback
    lhipjoint lfemur
    lfemur ltibia
    ltibia lfoot
    lfoot ltoes
    rhipjoint rfemur
    rfemur rtibia
    rtibia rfoot
    rfoot rtoes
    lowerback upperback
    upperback thorax
    thorax lowerneck lclavicle rclavicle
    lowerneck upperneck
    upperneck head
    lclavicle lhumerus
    lhumerus lradius
    lradius lwrist
    lwrist lhand lthumb
    lhand lfingers
    rclavicle rhumerus
    rhumerus rradius
    rradius rwrist
    rwrist rhand rthumb
    rhand rfingers
  end

#!OML:ASF H:\Terrain\Patient Classification 1\Terrain2\Thursday\justin.ASF
:FULLY-SPECIFIED
:DEGREES
88
root 9.05055 17.2872 -22.7085 2.58547 -1.67835 2.93253
lowerback 4.77833 -1.56069 -4.4894
upperback 1.93937 -2.26112 1.73973
thorax -0.432673 -1.16175 4.4272
lowerneck -16.1418 0.0581239 -7.35045
upperneck 31.5058 2.10957 0.737028
head 13.212 0.12682 1.89067
rclavicle 6.4605e-015 -9.54166e-015
rhumerus -34.2842 -11.0648 -76.3741
rradius 28.7314
rwrist -7.61201
rhand -18.034 10.1501
rfingers 7.12502
rthumb 8.23755 -19.6693
lclavicle 6.4605e-015 -9.54166e-015
lhumerus -28.9146 1.03187 80.3536
lradius 46.3243
lwrist 6.48581
lhand -16.0359 23.8269
lfingers 7.12502
lthumb 10.1655 53.5613
rfemur -34.0056 -2.15349 18.3999
rtibia 36.4354
rfoot -7.43548 -1.90197
rtoes 5.45022
lfemur -0.890997 6.17978 -25.4363
ltibia 20.123
lfoot -13.6028 -16.5691
ltoes 14.9576
89
root 9.03876 17.28 -22.5845 2.62058 -1.53259 3.00647
lowerback 4.77354 -1.5473 -4.64197
upperback 1.89192 -2.25013 1.77017
thorax -0.472549 -1.15507 4.54551
lowerneck -16.17 0.0401471 -7.2841
upperneck 31.5686 2.08832 0.677169
head 13.2477 0.115449 1.85392
rclavicle 3.29983e-014 -1.11319e-014
rhumerus -34.404 -10.8813 -76.4615
rradius 28.7151
rwrist -7.96642
rhand -18.0211 10.662
rfingers 7.12502
rthumb 8.24993 -19.157
lclavicle 3.29983e-014 -1.11319e-014
lhumerus -28.904 0.75301 80.4564
lradius 46.8046
lwrist 6.61093
lhand -15.838 24.7456
lfingers 7.12502
lthumb 10.3564 54.4706
rfemur -34.0977 -2.25797 18.4743
rtibia 34.5582
rfoot -6.96684 -1.37506
rtoes 5.10505
lfemur -0.112305 6.13976 -25.4293
ltibia 19.4682
lfoot -13.3 -16.6417
ltoes 15.7407
90
root 9.02856 17.2755 -22.4591 2.72257 -1.23366 3.18175
lowerback 4.66351 -1.65249 -4.84327
upperback 1.86542 -2.39444 1.78682
thorax -0.412559 -1.22953 4.67906
lowerneck -16.317 0.032437 -7.41806
upperneck 31.6311 2.10991 0.754276
head 13.3027 0.11643 1.91314
rclavicle 1.66979e-014 -1.82882e-014
rhumerus -34.3399 -10.652 -76.6001
rradius 28.622
rwrist -8.03245
rhand -18.4447 10.5776
rfingers 7.12502
rthumb 7.84111 -19.257
lclavicle 1.66979e-014 -1.82882e-014
lhumerus -28.8014 0.864207 80.4986
lradius 47.1081
lwrist 6.60995
lhand -16.051 26.0062
lfingers 7.12502
lthumb 10.1509 55.7413
rfemur -34.2095 -2.35665 18.3537
rtibia 32.8872
rfoot -7.13661 -1.05405
rtoes 4.45688
lfemur 0.621821 5.79543 -25.5728
ltibia 18.7587
lfoot -13.0203 -16.6122
ltoes 16.9252
91
root 9.01991 17.2656 -22.3385 2.78053 -1.00345 3.34073
lowerback 4.56294 -1.67891 -4.90127
upperback 1.87518 -2.42809 1.68967
thorax -0.344249 -1.2483 4.60795
lowerneck -16.1459 -0.00828009 -7.43441
upperneck 31.4205 1.99015 0.88319
head 13.1788 0.0883187 1.94273
rclavicle -9.64106e-015 -7.95139e-015
rhumerus -34.307 -10.7354 -76.7577
rradius 28.5282
rwrist -7.99443
rhand -18.8814 10.2943
rfingers 7.12502
rthumb 7.41962 -19.5556
lclavicle -9.64106e-015 -7.95139e-015
lhumerus -28.6001 0.666283 80.4894
lradius 47.3102
lwrist 6.61056
lhand -17.3826 22.4873
lfingers 7.12502
lthumb 8.86614 52.281
rfemur -34.3218 -2.40835 18.2258
rtibia 31.4033
rfoot -7.46337 -0.622236
rtoes 1.9495
lfemur 1.37928 5.59788 -25.6928
ltibia 18.0576
lfoot -12.9489 -16.589
ltoes 17.1649
92
root 9.00763 17.2586 -22.2163 2.77003 -0.890758 3.41938
lowerback 4.41451 -1.60007 -4.94122
upperback 1.99771 -2.31635 1.63399
thorax -0.148478 -1.20069 4.56019
lowerneck -15.9571 -0.0871354 -7.37441
upperneck 31.0755 1.82634 0.896562
head 13.001 0.0389685 1.9051
rclavicle 1.98785e-015 9.54166e-015
rhumerus -34.1768 -11.1515 -76.7499
rradius 28.415
rwrist -7.83833
rhand -18.61 10.554
rfingers 7.12502
rthumb 7.68161 -19.2865
lclavicle 1.98785e-015 9.54166e-015
lhumerus -28.3105 0.181829 80.589
lradius 47.5915
lwrist 6.73764
lhand -20.082 12.908
lfingers 7.12502
lthumb 6.26069 42.7955
rfemur -34.3535 -2.48539 18.261
rtibia 30.0908
rfoot -7.64718 -0.0485775
rtoes -0.15692
lfemur 2.1687 5.42113 -25.7194
ltibia 17.4411
lfoot -12.8953 -16.3867
ltoes 16.6824
93
root 8.99153 17.2552 -22.0898 2.71979 -0.914511 3.3883
lowerback 4.36054 -1.58105 -5.00065
upperback 2.06844 -2.28938 1.72455
thorax -0.0418903 -1.19298 4.68359
lowerneck -15.9886 -0.110014 -7.53601
upperneck 31.0349 1.83419 0.930148
head 12.9897 0.0293406 1.94674
rclavicle 1.68967e-014 -1.66979e-014
rhumerus -34.0602 -11.1705 -76.6981
rradius 28.2836
rwrist -7.58217
rhand -17.9666 10.9273
rfingers 7.12502
rthumb 8.30256 -18.8895
lclavicle 1.68967e-014 -1.66979e-014
lhumerus -28.1953 0.16237 80.7004
lradius 47.8534
lwrist 6.80768
lhand -16.7843 19.1857
lfingers 7.12502
lthumb 9.44349 48.9542
rfemur -34.2839 -2.45681 18.4582
rtibia 28.9421
rfoot -7.96773 0.627512
rtoes -1.81613
lfemur 2.95874 5.25714 -25.6298
ltibia 16.9459
lfoot -12.827 -16.081
ltoes 16.1637
94
root 8.97678 17.2496 -21.9666 2.66604 -0.870329 3.34265
lowerback 4.51093 -1.62101 -4.93199
upperback 2.02325 -2.34753 1.72341
thorax -0.168734 -1.21683 4.65212
lowerneck -16.0896 -0.0770841 -7.53991
upperneck 31.2006 1.87923 0.984869
head 13.077 0.0496968 1.97939
rclavicle 7.65321e-015 -1.74931e-014
rhumerus -34.0454 -11.0954 -76.8547
rradius 28.0858
rwrist -7.29721
rhand -18.0934 10.7064
rfingers 7.12502
rthumb 8.18019 -19.1152
lclavicle 7.65321e-015 -1.74931e-014
lhumerus -28.2632 0.121082 80.6502
lradius 48.086
lwrist 6.9488
lhand -15.0546 22.3614
lfingers 7.12502
lthumb 11.1121 52.0472
rfemur -34.2254 -2.52186 18.6868
rtibia 28.0155
rfoot -8.59366 1.29481
rtoes -2.40318
lfemur 3.69701 5.2148 -25.4848
ltibia 16.5337
lfoot -12.7189 -16.0851
ltoes 15.8685
95
root 8.96277 17.2422 -21.8444 2.63863 -0.696218 3.14748
lowerback 4.5599 -1.62434 -4.69012
upperback 2.051 -2.34365 1.74932
thorax -0.177299 -1.2137 4.54341
lowerneck -16.2525 -0.0794063 -7.45134
upperneck 31.3158 1.85956 1.0121
head 13.1609 0.0510746 1.97556
rclavicle -1.74931e-014 3.18055e-015
rhumerus -34.001 -11.2645 -76.9177
rradius 27.9424
rwrist -7.02947
rhand -18.5068 10.6324
rfingers 7.12502
rthumb 7.78115 -19.2045
lclavicle -1.74931e-014 3.18055e-015
lhumerus -28.2388 -0.227868 80.7115
lradius 48.2869
lwrist 7.07792
lhand -14.7217 24.4145
lfingers 7.12502
lthumb 11.4331 54.0828
rfemur -34.1619 -2.44066 18.9786
rtibia 27.3811
rfoot -9.25425 1.62874
rtoes -0.469731
lfemur 4.39267 5.21197 -25.1284
ltibia 16.1533
lfoot -12.6493 -16.2765
ltoes 15.1181
96
root 8.94817 17.2304 -21.7146 2.56376 -0.643634 3.07726
lowerback 4.55963 -1.61474 -4.71311
upperback 2.04563 -2.33125 1.85573
thorax -0.178395 -1.20822 4.66678
lowerneck -16.2263 -0.0594086 -7.47142
upperneck 31.3804 1.92096 0.93376
head 13.1815 0.0631746 1.95873
rclavicle -1.86858e-014 1.74931e-014
rhumerus -34.1501 -11.237 -76.7402
rradius 27.9409
rwrist -6.71669
rhand -18.308 11.2297
rfingers 7.12502
rthumb 7.97308 -18.5999
lclavicle -1.86858e-014 1.74931e-014
lhumerus -28.4236 -0.349342 80.9202
lradius 48.457
lwrist 7.10008
lhand -14.8547 25.6664
lfingers 7.12502
lthumb 11.3049 55.3417
rfemur -34.0165 -2.22094 19.1269
rtibia 27.0317
rfoot -9.73484 1.75854
rtoes 0.597533
lfemur 5.14068 5.10267 -24.9545
ltibia 15.815
lfoot -12.7443 -16.136
ltoes 13.6796
97
root 8.93702 17.2169 -21.5808 2.48254 -0.61512 3.42247
lowerback 4.53414 -1.6749 -5.09428
upperback 2.01091 -2.42674 1.81619
thorax -0.173551 -1.25782 4.84456
lowerneck -16.0455 0.0282927 -7.44189
upperneck 31.328 2.0732 0.772579
head 13.1169 0.113962 1.91129
rclavicle -1.6201e-014 -1.90833e-014
rhumerus -34.1679 -10.9663 -76.7996
rradius 27.8133
rwrist -6.62118
rhand -18.3933 11.4065
rfingers 7.12502
rthumb 7.89073 -18.4262
lclavicle -1.6201e-014 -1.90833e-014
lhumerus -28.672 -0.126178 80.9767
lradius 48.5643
lwrist 7.1251
lhand -14.9088 25.6614
lfingers 7.12502
lthumb 11.2527 55.3396
rfemur -33.897 -2.66276 19.0797
rtibia 26.8822
rfoot -9.94072 2.14979
rtoes -0.837534
lfemur 5.84346 4.74025 -25.3182
ltibia 15.6021
lfoot -12.8554 -15.7598
ltoes 12.5167
98
root 8.92707 17.2052 -21.4517 2.53975 -0.591915 3.65117
lowerback 4.40041 -1.66245 -5.35863
upperback 1.97449 -2.41485 1.81096
thorax -0.126274 -1.25426 4.98402
lowerneck -15.8222 0.0802274 -7.37774
upperneck 31.1661 2.13706 0.668842
head 13.0005 0.142808 1.86476
rclavicle -1.03368e-014 2.54444e-014
rhumerus -34.0867 -10.8514 -76.8743
rradius 27.6615
rwrist -6.81542
rhand -19.0237 10.9879
rfingers 7.12502
rthumb 7.28224 -18.8668
lclavicle -1.03368e-014 2.54444e-014
lhumerus -28.7601 -0.0124379 81.1075
lradius 48.5479
lwrist 7.02678
lhand -15.324 24.7759
lfingers 7.12502
lthumb 10.8522 54.4756
rfemur -33.9284 -3.24421 19.2246
rtibia 26.8697
rfoot -9.93132 2.46982
rtoes -2.19352
lfemur 6.29335 4.44989 -25.5544
ltibia 15.5543
lfoot -12.9196 -15.5718
ltoes 10.8727
